<?xml version="1.0" standalone="no"?>
<!DOCTYPE svg PUBLIC "-//W3C//DTD SVG 20010904//EN"
 "http://www.w3.org/TR/2001/REC-SVG-20010904/DTD/svg10.dtd">
<svg version="1.0" xmlns="http://www.w3.org/2000/svg"
 width="570.000000pt" height="352.000000pt" viewBox="0 0 570.000000 352.000000"
 preserveAspectRatio="xMidYMid meet">

<g transform="translate(0.000000,352.000000) scale(0.100000,-0.100000)"
fill="#000000" stroke="none">
<path d="M2172 2660 c-74 -15 -159 -60 -201 -106 -22 -24 -46 -44 -54 -44 -7
0 -31 -15 -54 -34 -28 -25 -59 -39 -106 -50 -125 -29 -184 -70 -294 -203 -17
-21 -34 -35 -38 -31 -9 9 9 41 21 36 13 -5 17 41 5 56 -6 8 -9 21 -5 30 8 20
1 20 -36 1 -34 -18 -70 -61 -70 -86 0 -9 9 -38 19 -62 15 -34 26 -47 48 -51
l28 -7 0 -82 c-1 -87 -8 -108 -49 -146 -14 -14 -26 -35 -26 -48 0 -54 61 -123
123 -138 28 -7 31 -13 21 -39 -5 -13 -24 -16 -108 -16 -57 0 -105 2 -108 5 -3
3 3 36 13 73 31 110 41 102 -131 102 -147 0 -150 0 -155 -22 -3 -13 -23 -99
-46 -193 -22 -93 -55 -235 -74 -315 -18 -80 -40 -173 -48 -207 l-15 -63 157 0
158 0 37 170 c59 265 46 240 117 240 56 0 59 -1 54 -22 -2 -13 -23 -102 -45
-199 -22 -97 -40 -179 -40 -182 0 -12 2119 -8 2142 4 15 8 28 7 51 -3 24 -10
94 -12 290 -10 l257 3 0 -23 c-1 -13 -7 -50 -15 -83 -8 -33 -15 -63 -15 -67 0
-5 69 -8 154 -8 l154 0 12 52 c6 29 15 69 20 88 l9 35 153 0 c84 0 165 3 181
8 30 8 102 69 118 99 13 24 89 366 89 401 0 43 -28 87 -65 103 -50 20 -1159
21 -1209 0 -27 -11 -36 -11 -57 0 -18 10 -86 13 -285 14 -143 0 -263 2 -266 6
-3 3 3 37 13 77 10 40 19 78 19 85 0 9 -37 12 -154 12 l-154 0 -17 -77 c-9
-43 -18 -84 -20 -90 -3 -10 -45 -13 -165 -13 -115 0 -170 -4 -194 -14 -44 -18
-72 -4 -38 20 22 15 23 20 16 97 -3 45 -15 103 -24 130 -10 26 -16 47 -13 47
3 0 21 -13 40 -30 49 -44 103 -42 149 4 19 19 34 41 34 50 0 13 11 16 54 16
84 0 154 27 180 69 49 78 69 151 70 251 1 82 -3 102 -24 145 -17 34 -34 53
-52 59 -25 9 -32 5 -66 -32 -22 -23 -42 -42 -45 -42 -4 0 -13 13 -22 30 -17
33 -203 186 -250 205 -44 19 -105 24 -153 15z m121 -31 c32 -9 140 -85 158
-111 3 -5 20 -16 38 -26 17 -9 41 -32 52 -50 21 -32 21 -32 1 -32 -27 0 -52
-10 -52 -21 0 -5 9 -9 20 -9 22 0 27 -15 8 -23 -7 -3 -1 -6 15 -6 34 -1 36
-21 1 -21 -30 0 -64 -16 -64 -31 0 -5 12 -1 27 8 26 18 27 17 19 -2 -23 -57
-17 -73 8 -23 6 13 20 24 30 26 17 4 18 -1 12 -49 -5 -45 -4 -51 6 -34 6 11
11 50 11 87 -1 61 1 68 20 74 12 4 37 23 55 43 26 28 36 33 49 25 31 -19 46
-84 47 -199 1 -125 -13 -166 -78 -223 -57 -50 -148 -55 -268 -15 l-57 20 -7
-54 c-7 -56 -2 -83 16 -83 6 0 9 4 6 9 -4 5 3 7 13 4 21 -5 61 28 61 52 0 8 5
15 10 15 28 0 -9 -72 -45 -88 -39 -18 -48 -15 -101 27 -57 45 -134 86 -134 71
0 -5 3 -10 8 -10 4 0 17 -8 30 -18 l23 -18 -24 -77 c-31 -97 -73 -162 -134
-209 -26 -20 -58 -48 -70 -62 -13 -14 -30 -26 -39 -26 -21 0 -68 50 -84 91
-16 38 -7 56 38 78 25 13 32 22 32 45 0 27 -1 28 -13 11 -20 -27 -153 -27
-173 0 -13 17 -14 14 -14 -28 0 -28 -8 -64 -20 -87 -11 -22 -20 -49 -20 -60 0
-29 -23 -35 -88 -20 -84 18 -93 28 -74 93 l14 53 -48 99 c-44 91 -48 107 -52
186 -4 78 -2 93 22 145 38 82 70 121 137 164 56 36 153 69 166 57 3 -4 -14
-28 -37 -54 -48 -55 -90 -132 -90 -165 0 -13 16 -47 34 -76 28 -43 33 -60 29
-90 -5 -34 -1 -41 31 -70 49 -43 85 -42 187 8 46 22 93 40 105 40 19 0 24 8
35 55 10 44 10 75 -1 158 -20 155 -31 151 -24 -9 7 -150 0 -184 -36 -184 -10
0 -48 -15 -85 -34 -92 -48 -128 -51 -168 -10 -29 29 -26 50 18 131 l27 48 -32
-35 -31 -35 -20 25 c-50 63 -51 73 -19 136 17 35 67 99 120 156 85 91 93 97
143 106 28 5 42 10 29 11 -58 3 35 79 135 111 67 22 103 24 156 9z m-884 -376
c-4 -21 -11 -48 -14 -60 -9 -28 14 -40 44 -23 23 12 24 10 15 -14 -4 -9 -18
-16 -33 -16 -21 0 -31 8 -44 35 -22 46 -21 57 4 89 28 36 38 33 28 -11z m108
-520 c-13 -14 -19 -13 -54 7 -39 21 -73 65 -73 91 0 7 14 28 32 46 l31 32 40
-81 c34 -71 37 -82 24 -95z m744 31 c7 -67 6 -90 -3 -96 -12 -8 -106 -4 -115
5 -2 3 12 28 31 56 18 29 39 72 46 97 18 63 30 44 41 -62z m-991 4 c0 -7 -9
-48 -19 -90 l-18 -78 136 0 c129 0 214 -14 259 -43 20 -14 14 -68 -33 -281
-25 -113 -45 -208 -45 -211 0 -3 -34 -5 -76 -5 -75 0 -76 0 -70 23 30 123 74
350 70 362 -9 22 -36 26 -159 23 l-109 -3 -46 -200 -45 -200 -73 -3 c-39 -2
-72 1 -72 5 0 4 35 167 77 360 l78 353 73 0 c51 0 72 -4 72 -12z m1695 -15
c-3 -16 -39 -176 -79 -358 l-73 -330 -244 -2 c-265 -3 -283 0 -307 50 -12 24
-8 49 27 212 60 275 53 268 311 275 l185 5 19 88 19 87 74 0 75 0 -7 -27z
m-1115 -12 c0 -6 -5 -13 -11 -17 -11 -6 -9 -32 6 -66 6 -16 1 -18 -44 -18 -55
0 -62 9 -36 44 8 11 15 30 15 43 0 20 5 23 35 23 19 0 35 -4 35 -9z m53 -171
c21 -22 38 -30 62 -30 24 0 41 8 62 30 27 29 31 30 121 30 85 0 95 -2 117 -25
17 -16 25 -35 25 -59 0 -31 -86 -431 -97 -448 -8 -14 -509 -9 -538 4 -48 22
-57 56 -39 145 19 92 38 127 80 154 28 17 51 19 227 19 168 0 196 2 201 16 9
25 7 33 -14 54 -19 19 -33 20 -229 20 l-209 0 10 40 c6 22 17 40 24 40 8 0 19
9 26 20 11 17 24 20 78 20 59 0 68 -3 93 -30z m1633 -3 c13 -15 24 -38 24 -50
-1 -45 -78 -368 -94 -393 -10 -14 -31 -34 -49 -44 -29 -18 -52 -20 -265 -20
l-233 0 -24 25 c-14 13 -25 36 -25 51 0 45 78 372 95 398 9 14 35 34 58 46 40
19 55 21 265 18 l224 -3 24 -28z m650 0 c13 -15 24 -37 24 -48 0 -40 -80 -373
-95 -396 -9 -13 -30 -33 -48 -43 -29 -18 -52 -20 -265 -20 l-233 0 -24 25
c-15 14 -25 35 -25 52 1 49 77 372 95 399 9 14 35 34 58 45 38 18 62 19 265
17 l224 -3 24 -28z m584 22 c21 -8 37 -22 45 -43 12 -29 10 -50 -25 -208 -61
-279 -52 -271 -310 -278 l-185 -5 -19 -87 -20 -88 -73 0 c-40 0 -73 3 -73 7 0
9 149 684 155 701 6 16 457 17 505 1z"/>
<path d="M1937 2432 c-20 -22 -50 -92 -43 -100 3 -3 6 -1 6 4 0 5 12 27 26 49
17 27 24 33 21 18 -7 -34 7 -36 21 -3 7 16 25 33 40 39 26 9 25 9 -14 10 -27
1 -46 -5 -57 -17z"/>
<path d="M2204 2425 c-24 -37 -12 -40 15 -5 12 17 17 30 12 30 -6 0 -18 -11
-27 -25z"/>
<path d="M2684 2419 c-3 -6 -20 -19 -38 -30 -17 -10 -25 -19 -18 -19 21 0 51
19 62 40 11 21 6 28 -6 9z"/>
<path d="M2272 2334 c-20 -20 -29 -33 -19 -30 9 3 17 0 17 -6 0 -7 5 -6 15 2
19 16 34 5 17 -12 -26 -26 -10 -27 26 -1 20 15 39 28 40 29 8 5 -34 53 -46 54
-7 0 -29 -16 -50 -36z"/>
<path d="M2313 2055 c-8 -23 0 -24 20 -3 14 15 15 18 2 18 -9 0 -18 -7 -22
-15z"/>
<path d="M2498 1465 c-29 -16 -39 -40 -64 -162 -24 -115 -25 -114 134 -111
l126 3 28 125 c15 69 28 133 28 143 0 15 -12 17 -112 17 -79 -1 -121 -5 -140
-15z m122 -38 c0 -14 -39 -177 -44 -186 -4 -6 -29 -11 -57 -11 -42 0 -49 3
-49 19 0 19 26 141 35 169 3 7 24 12 60 12 30 0 55 -1 55 -3z"/>
<path d="M1785 1246 c-8 -13 -13 -31 -9 -40 5 -14 26 -16 154 -16 l148 0 6 31
c3 17 6 35 6 40 0 5 -65 9 -145 9 -141 0 -145 -1 -160 -24z"/>
<path d="M3101 1451 c-22 -22 -35 -62 -53 -168 -16 -100 -12 -103 138 -103
146 0 154 6 183 131 12 50 21 101 21 113 0 41 -17 46 -147 46 -108 0 -125 -2
-142 -19z m155 -29 c9 -5 7 -28 -6 -88 -10 -45 -21 -87 -24 -93 -7 -11 -128
-16 -138 -6 -9 9 32 179 45 187 15 10 108 10 123 0z"/>
<path d="M3759 1460 c-20 -12 -34 -46 -54 -133 -32 -143 -25 -150 141 -145
140 4 144 7 173 131 24 102 26 128 9 145 -15 15 -245 16 -269 2z m155 -38 c5
-9 -27 -163 -38 -181 -7 -11 -128 -16 -138 -5 -9 9 31 177 44 186 17 10 125
10 132 0z"/>
<path d="M4385 1458 c-9 -28 -55 -242 -55 -259 0 -17 9 -19 110 -19 166 0 165
-1 204 173 20 84 20 82 0 101 -20 21 -252 24 -259 4z m141 -42 c3 -8 -3 -52
-13 -98 l-19 -83 -57 -3 c-31 -2 -57 -1 -57 2 0 12 41 179 46 187 9 15 94 11
100 -5z"/>
<path d="M1969 2641 c-13 -11 -21 -22 -18 -25 3 -3 16 5 29 19 28 30 22 33
-11 6z"/>
<path d="M1305 2279 c-9 -17 -15 -33 -13 -35 3 -2 12 12 21 31 21 43 13 47 -8
4z"/>
</g>
</svg>
